<?xml version="1.0" encoding="utf-8"?>
<!-- Generator: Adobe Illustrator 16.0.1, SVG Export Plug-In . SVG Version: 6.00 Build 0)  -->
<!DOCTYPE svg PUBLIC "-//W3C//DTD SVG 1.1//EN" "http://www.w3.org/Graphics/SVG/1.1/DTD/svg11.dtd">
<svg version="1.1" id="Layer_1" xmlns="http://www.w3.org/2000/svg" xmlns:xlink="http://www.w3.org/1999/xlink" x="0px" y="0px"
	 width="144px" height="144px" viewBox="0 0 144 144" enable-background="new 0 0 144 144" xml:space="preserve">
<g>
	<defs>
		<rect id="SVGID_1_" y="20.985" width="144" height="102.029"/>
	</defs>
	<clipPath id="SVGID_2_">
		<use xlink:href="#SVGID_1_"  overflow="visible"/>
	</clipPath>
	<g clip-path="url(#SVGID_2_)">
		<path fill-opacity="0" d="M0,20.985h144v102.029H0V20.985z"/>
		<path fill="#FFFFFF" d="M0.707,84.393L0.707,84.393c0-17.54,19.736-31.759,44.082-31.759l0,0
			c24.346,0,44.082,14.219,44.082,31.759l0,0c0,17.541-19.736,31.76-44.082,31.76l0,0C20.443,116.152,0.707,101.934,0.707,84.393z"
			/>
		<path fill="#FFFFFF" d="M29.402,55.883L29.402,55.883c0-18.884,19.736-34.192,44.083-34.192l0,0
			c24.346,0,44.081,15.309,44.081,34.192l0,0c0,18.884-19.735,34.193-44.081,34.193l0,0C49.138,90.076,29.402,74.768,29.402,55.883z
			"/>
		<path fill="#FFFFFF" d="M36.705,84.555L36.705,84.555c0-20.314,23.647-36.783,52.818-36.783l0,0
			c29.172,0,52.818,16.468,52.818,36.783l0,0c0,20.314-23.646,36.782-52.818,36.782l0,0
			C60.353,121.337,36.705,104.869,36.705,84.555z"/>
	</g>
</g>
</svg>
