<?xml version="1.0" encoding="utf-8"?>
<!-- Generator: Adobe Illustrator 16.0.1, SVG Export Plug-In . SVG Version: 6.00 Build 0)  -->
<!DOCTYPE svg PUBLIC "-//W3C//DTD SVG 1.1//EN" "http://www.w3.org/Graphics/SVG/1.1/DTD/svg11.dtd">
<svg version="1.1" id="Layer_1" xmlns="http://www.w3.org/2000/svg" xmlns:xlink="http://www.w3.org/1999/xlink" x="0px" y="0px"
	 width="740px" height="1912px" viewBox="0 0 740 1912" enable-background="new 0 0 740 1912" xml:space="preserve">
<polygon fill="#807FBB" stroke="#4A4A4A" stroke-width="5" stroke-miterlimit="10" points="711,1450.832 438.457,1480.959 
	438.457,1265.163 695,1266.832 "/>
<line fill="none" stroke="#4A4A4A" stroke-width="5" stroke-miterlimit="10" x1="81.235" y1="1576.735" x2="80.583" y2="1508.744"/>
<polygon fill="#807FBB" stroke="#4A4A4A" stroke-width="5" stroke-miterlimit="10" points="608.715,1506.852 37.853,1508.589 
	98.241,1266.354 608.715,1266.354 "/>
<rect x="77" y="1508.832" fill="#538ABF" stroke="#4A4A4A" stroke-width="5" stroke-miterlimit="10" width="586" height="84"/>
<rect x="77.235" y="1868.283" fill="#D868B1" stroke="#4A4A4A" stroke-width="5" stroke-miterlimit="10" width="585.598" height="22.549"/>
<g>
	<polygon fill="#F0F09D" stroke="#4A4A4A" stroke-width="5" stroke-miterlimit="10" points="541.953,1230.481 486.979,1230.481 
		394.813,1376.986 394.813,1576.735 659.824,1576.735 659.824,1376.729 	"/>
</g>
<g>
	<polygon fill="#F0F09D" stroke="#4A4A4A" stroke-width="5" stroke-miterlimit="10" points="196.053,1275.912 160.087,1336.18 
		160.087,1459.527 292.593,1459.527 292.593,1338.459 246.811,1275.912 	"/>
	<g>
		<polygon fill="#D9D9D9" stroke="#4A4A4A" stroke-width="5" stroke-miterlimit="10" points="242.691,1246.251 225.936,1217.361 
			140.699,1361.367 157.455,1390.256 		"/>
		<polyline fill="#D9D9D9" stroke="#4A4A4A" stroke-width="5" stroke-miterlimit="10" points="208.804,1245.385 225.88,1217.045 
			309.493,1363.799 292.417,1392.139 		"/>
	</g>
	
		<line fill="#D9D9D9" stroke="#4A4A4A" stroke-width="5" stroke-miterlimit="10" x1="292.417" y1="1392.139" x2="224.92" y2="1275.439"/>
</g>
<line fill="none" stroke="#4A4A4A" stroke-width="5" stroke-miterlimit="10" x1="227" y1="1506.832" x2="227" y2="1574.832"/>
<rect x="77.235" y="1576.735" fill="#E3A1B3" stroke="#4A4A4A" stroke-width="5" stroke-miterlimit="10" width="318.778" height="291.548"/>
<g>
	<polygon fill="#D8D8D8" stroke="#4A4A4A" stroke-width="5" stroke-miterlimit="10" points="564.663,1158.111 531.02,1083.646 
		359.872,1454.824 393.514,1529.289 	"/>
	<polyline fill="#D8D8D8" stroke="#4A4A4A" stroke-width="5" stroke-miterlimit="10" points="496.622,1155.878 530.908,1082.832 
		698.795,1461.096 664.51,1534.141 	"/>
</g>
<rect x="260.502" y="1679.332" fill="#6D384A" stroke="#4A4A4A" stroke-width="5" stroke-miterlimit="10" width="100" height="180"/>
<rect x="395.592" y="1576.584" fill="#99D483" stroke="#4A4A4A" stroke-width="5" stroke-miterlimit="10" width="266.986" height="292.819"/>
<rect x="497.98" y="1681.366" fill="#FFFFFF" stroke="#7E7FB3" stroke-width="7" stroke-miterlimit="10" width="63.826" height="101.465"/>
<g>
	<polygon fill="#FFFFFF" stroke="#7E7FB3" stroke-width="7" stroke-miterlimit="10" points="644.297,1667.328 647.349,1668.548 
		647.958,1766.186 594.767,1779.014 592.663,1779.014 592.663,1680.402 	"/>
</g>
<g>
	<polygon fill="#FFFFFF" stroke="#7E7FB3" stroke-width="7" stroke-miterlimit="10" points="416.919,1667.497 413.867,1668.717 
		413.258,1766.354 466.449,1779.183 468.554,1779.183 468.554,1680.572 	"/>
</g>
<rect x="123.5" y="1689.832" fill="#FFFFFF" stroke="#7E7FB3" stroke-width="7" stroke-miterlimit="10" width="61.5" height="95.999"/>
<line fill="none" stroke="#4A4A4A" stroke-width="5" stroke-miterlimit="10" x1="529" y1="1234.832" x2="664.51" y2="1534.141"/>
<rect x="195" y="1358.832" fill="#FFFFFF" stroke="#7E7FB3" stroke-width="7" stroke-miterlimit="10" width="54" height="78"/>
<rect x="325" y="1114.832" fill="#6C384A" stroke="#4A4A4A" stroke-width="5" stroke-miterlimit="10" width="72" height="184"/>
<rect x="209.583" y="1507.744" fill="#DEDEDF" stroke="#4A4A4A" stroke-width="5" stroke-miterlimit="10" width="19.417" height="360.088"/>
<rect x="76.583" y="1508.744" fill="#DEDEDF" stroke="#4A4A4A" stroke-width="5" stroke-miterlimit="10" width="19.417" height="360.088"/>
<rect x="212" y="1864.832" fill="#CECE97" stroke="#4A4A4A" stroke-width="5" stroke-miterlimit="10" width="191" height="23"/>
<rect x="205" y="1879.832" fill="#CECE97" stroke="#4A4A4A" stroke-width="5" stroke-miterlimit="10" width="204" height="23"/>
<rect x="487.666" y="1370.166" fill="#FFFFFF" stroke="#7E7FB3" stroke-width="7" stroke-miterlimit="10" width="86.667" height="133.333"/>
<ellipse fill="#F5675C" stroke="#4A4A4A" stroke-width="5" stroke-miterlimit="10" cx="223.835" cy="510.106" rx="41.624" ry="47.868"/>
<ellipse fill="#6DC7DE" stroke="#4A4A4A" stroke-width="5" stroke-miterlimit="10" cx="225.916" cy="553.812" rx="41.624" ry="47.868"/>
<ellipse fill="#6DC7DE" stroke="#4A4A4A" stroke-width="5" stroke-miterlimit="10" cx="363.276" cy="718.228" rx="41.624" ry="47.867"/>
<ellipse fill="#6DC7DE" stroke="#4A4A4A" stroke-width="5" stroke-miterlimit="10" cx="415.307" cy="801.476" rx="41.624" ry="47.869"/>
<ellipse fill="#6DC7DE" stroke="#4A4A4A" stroke-width="5" stroke-miterlimit="10" cx="529.773" cy="568.379" rx="41.624" ry="47.868"/>
<ellipse fill="#6DC7DE" stroke="#4A4A4A" stroke-width="5" stroke-miterlimit="10" cx="384.088" cy="549.648" rx="41.625" ry="47.868"/>
<ellipse fill="#6DC7DE" stroke="#4A4A4A" stroke-width="5" stroke-miterlimit="10" cx="394.495" cy="397.719" rx="41.625" ry="47.868"/>
<ellipse fill="#6DC7DE" stroke="#4A4A4A" stroke-width="5" stroke-miterlimit="10" cx="273.784" cy="410.207" rx="41.624" ry="47.868"/>
<ellipse fill="#6DC7DE" stroke="#4A4A4A" stroke-width="5" stroke-miterlimit="10" cx="471.5" cy="732.796" rx="41.624" ry="47.867"/>
<ellipse fill="#6DC7DE" stroke="#4A4A4A" stroke-width="5" stroke-miterlimit="10" cx="244.647" cy="687.009" rx="41.624" ry="47.869"/>
<ellipse fill="#7DC329" stroke="#4A4A4A" stroke-width="5" stroke-miterlimit="10" cx="361.195" cy="503.862" rx="41.624" ry="47.868"/>
<ellipse fill="#7DC329" stroke="#4A4A4A" stroke-width="5" stroke-miterlimit="10" cx="307.083" cy="610.004" rx="41.625" ry="47.868"/>
<ellipse fill="#7DC329" stroke="#4A4A4A" stroke-width="5" stroke-miterlimit="10" cx="296.677" cy="716.146" rx="41.624" ry="47.869"/>
<ellipse transform="matrix(0.9565 -0.2917 0.2917 0.9565 -216.494 125.6889)" fill="#7DC329" stroke="#4A4A4A" stroke-width="5" stroke-miterlimit="10" cx="313.327" cy="788.989" rx="41.624" ry="47.868"/>
<ellipse fill="#7DC329" stroke="#4A4A4A" stroke-width="5" stroke-miterlimit="10" cx="506.88" cy="691.171" rx="41.625" ry="47.869"/>
<ellipse fill="#7DC329" stroke="#4A4A4A" stroke-width="5" stroke-miterlimit="10" cx="411.144" cy="695.334" rx="41.625" ry="47.868"/>
<ellipse fill="#7DC329" stroke="#4A4A4A" stroke-width="5" stroke-miterlimit="10" cx="452.769" cy="537.162" rx="41.625" ry="47.868"/>
<ellipse fill="#7DC329" stroke="#4A4A4A" stroke-width="5" stroke-miterlimit="10" cx="471.5" cy="410.208" rx="41.625" ry="47.868"/>
<ellipse fill="#F8F618" stroke="#4A4A4A" stroke-width="5" stroke-miterlimit="10" cx="273.784" cy="512.187" rx="41.624" ry="47.868"/>
<ellipse fill="#F8F618" stroke="#4A4A4A" stroke-width="5" stroke-miterlimit="10" cx="225.916" cy="628.735" rx="41.625" ry="47.868"/>
<ellipse fill="#F8F618" stroke="#4A4A4A" stroke-width="5" stroke-miterlimit="10" cx="277.946" cy="730.715" rx="41.625" ry="47.868"/>
<ellipse fill="#F8F618" stroke="#4A4A4A" stroke-width="5" stroke-miterlimit="10" cx="498.555" cy="589.192" rx="41.624" ry="47.868"/>
<ellipse fill="#F8F618" stroke="#4A4A4A" stroke-width="5" stroke-miterlimit="10" cx="461.094" cy="753.608" rx="41.624" ry="47.868"/>
<ellipse fill="#F8F618" stroke="#4A4A4A" stroke-width="5" stroke-miterlimit="10" cx="431.957" cy="464.319" rx="41.624" ry="47.868"/>
<ellipse fill="#F8F618" stroke="#4A4A4A" stroke-width="5" stroke-miterlimit="10" cx="361.195" cy="649.547" rx="41.624" ry="47.869"/>
<ellipse fill="#F5675C" stroke="#4A4A4A" stroke-width="5" stroke-miterlimit="10" cx="273.784" cy="639.141" rx="41.624" ry="47.868"/>
<ellipse fill="#F5675C" stroke="#4A4A4A" stroke-width="5" stroke-miterlimit="10" cx="431.957" cy="736.958" rx="41.624" ry="47.869"/>
<ellipse fill="#F5675C" stroke="#4A4A4A" stroke-width="5" stroke-miterlimit="10" cx="429.875" cy="614.167" rx="41.625" ry="47.868"/>
<ellipse fill="#F5675C" stroke="#4A4A4A" stroke-width="5" stroke-miterlimit="10" cx="344.546" cy="524.674" rx="41.624" ry="47.868"/>
<ellipse fill="#F4B410" stroke="#4A4A4A" stroke-width="5" stroke-miterlimit="10" cx="498.556" cy="460.157" rx="41.625" ry="47.868"/>
<ellipse fill="#F4B410" stroke="#4A4A4A" stroke-width="5" stroke-miterlimit="10" cx="483.987" cy="680.766" rx="41.625" ry="47.868"/>
<ellipse fill="#BF3C9A" stroke="#4A4A4A" stroke-width="5" stroke-miterlimit="10" cx="219.672" cy="455.994" rx="41.624" ry="47.868"/>
<ellipse fill="#BF3C9A" stroke="#4A4A4A" stroke-width="5" stroke-miterlimit="10" cx="400.738" cy="601.679" rx="41.624" ry="47.868"/>
<ellipse fill="#BF3C9A" stroke="#4A4A4A" stroke-width="5" stroke-miterlimit="10" cx="488.15" cy="580.867" rx="41.625" ry="47.868"/>
<ellipse fill="#BF3C9A" stroke="#4A4A4A" stroke-width="5" stroke-miterlimit="10" cx="429.875" cy="728.634" rx="41.625" ry="47.867"/>
<ellipse fill="#BF3C9A" stroke="#4A4A4A" stroke-width="5" stroke-miterlimit="10" cx="203.023" cy="578.786" rx="41.624" ry="47.868"/>
<ellipse fill="#BF3C9A" stroke="#4A4A4A" stroke-width="5" stroke-miterlimit="10" cx="361.195" cy="747.364" rx="41.624" ry="47.869"/>
<ellipse fill="#BF3C9A" stroke="#4A4A4A" stroke-width="5" stroke-miterlimit="10" cx="375.763" cy="451.832" rx="41.624" ry="47.868"/>
<ellipse fill="#F4B410" stroke="#4A4A4A" stroke-width="5" stroke-miterlimit="10" cx="369.52" cy="830.612" rx="41.624" ry="47.869"/>
<ellipse fill="#F4B410" stroke="#4A4A4A" stroke-width="5" stroke-miterlimit="10" cx="250.89" cy="659.954" rx="41.624" ry="47.868"/>
<ellipse fill="#F4B410" stroke="#4A4A4A" stroke-width="5" stroke-miterlimit="10" cx="309.165" cy="595.436" rx="41.625" ry="47.868"/>
<ellipse fill="#F4B410" stroke="#4A4A4A" stroke-width="5" stroke-miterlimit="10" cx="309.165" cy="449.75" rx="41.625" ry="47.868"/>
<ellipse fill="#F5675C" stroke="#4A4A4A" stroke-width="5" stroke-miterlimit="10" cx="517.287" cy="524.674" rx="41.624" ry="47.868"/>
<ellipse fill="#F5675C" stroke="#4A4A4A" stroke-width="5" stroke-miterlimit="10" cx="515.206" cy="662.035" rx="41.625" ry="47.868"/>
<ellipse fill="#F5675C" stroke="#4A4A4A" stroke-width="5" stroke-miterlimit="10" cx="298.759" cy="757.771" rx="41.625" ry="47.867"/>
<ellipse fill="#F5675C" stroke="#4A4A4A" stroke-width="5" stroke-miterlimit="10" cx="438.201" cy="410.207" rx="41.625" ry="47.868"/>
<ellipse fill="#F5675C" stroke="#4A4A4A" stroke-width="5" stroke-miterlimit="10" cx="120.317" cy="447.289" rx="41.624" ry="47.868"/>
<ellipse fill="#6DC7DE" stroke="#4A4A4A" stroke-width="5" stroke-miterlimit="10" cx="122.398" cy="490.994" rx="41.624" ry="47.868"/>
<ellipse fill="#6DC7DE" stroke="#4A4A4A" stroke-width="5" stroke-miterlimit="10" cx="259.758" cy="655.41" rx="41.624" ry="47.868"/>
<ellipse fill="#6DC7DE" stroke="#4A4A4A" stroke-width="5" stroke-miterlimit="10" cx="311.789" cy="738.659" rx="41.624" ry="47.868"/>
<ellipse fill="#6DC7DE" stroke="#4A4A4A" stroke-width="5" stroke-miterlimit="10" cx="426.256" cy="505.562" rx="41.624" ry="47.868"/>
<ellipse fill="#6DC7DE" stroke="#4A4A4A" stroke-width="5" stroke-miterlimit="10" cx="280.571" cy="486.831" rx="41.624" ry="47.868"/>
<ellipse fill="#6DC7DE" stroke="#4A4A4A" stroke-width="5" stroke-miterlimit="10" cx="290.977" cy="334.902" rx="41.624" ry="47.868"/>
<ellipse fill="#6DC7DE" stroke="#4A4A4A" stroke-width="5" stroke-miterlimit="10" cx="170.266" cy="347.389" rx="41.624" ry="47.868"/>
<ellipse fill="#6DC7DE" stroke="#4A4A4A" stroke-width="5" stroke-miterlimit="10" cx="367.982" cy="669.978" rx="41.624" ry="47.869"/>
<ellipse fill="#6DC7DE" stroke="#4A4A4A" stroke-width="5" stroke-miterlimit="10" cx="141.129" cy="624.191" rx="41.624" ry="47.869"/>
<ellipse fill="#7DC329" stroke="#4A4A4A" stroke-width="5" stroke-miterlimit="10" cx="257.677" cy="441.044" rx="41.624" ry="47.868"/>
<ellipse fill="#7DC329" stroke="#4A4A4A" stroke-width="5" stroke-miterlimit="10" cx="203.565" cy="547.187" rx="41.624" ry="47.868"/>
<ellipse fill="#7DC329" stroke="#4A4A4A" stroke-width="5" stroke-miterlimit="10" cx="193.159" cy="653.329" rx="41.624" ry="47.868"/>
<ellipse transform="matrix(0.9565 -0.2917 0.2917 0.9565 -202.6804 92.7702)" fill="#7DC329" stroke="#4A4A4A" stroke-width="5" stroke-miterlimit="10" cx="209.809" cy="726.171" rx="41.624" ry="47.868"/>
<ellipse fill="#7DC329" stroke="#4A4A4A" stroke-width="5" stroke-miterlimit="10" cx="403.362" cy="628.354" rx="41.625" ry="47.868"/>
<ellipse fill="#7DC329" stroke="#4A4A4A" stroke-width="5" stroke-miterlimit="10" cx="307.626" cy="632.517" rx="41.625" ry="47.868"/>
<ellipse fill="#7DC329" stroke="#4A4A4A" stroke-width="5" stroke-miterlimit="10" cx="349.251" cy="474.344" rx="41.625" ry="47.868"/>
<ellipse fill="#7DC329" stroke="#4A4A4A" stroke-width="5" stroke-miterlimit="10" cx="367.982" cy="347.39" rx="41.625" ry="47.868"/>
<ellipse fill="#F8F618" stroke="#4A4A4A" stroke-width="5" stroke-miterlimit="10" cx="170.266" cy="449.37" rx="41.624" ry="47.868"/>
<ellipse fill="#F8F618" stroke="#4A4A4A" stroke-width="5" stroke-miterlimit="10" cx="122.398" cy="565.918" rx="41.625" ry="47.868"/>
<ellipse fill="#F8F618" stroke="#4A4A4A" stroke-width="5" stroke-miterlimit="10" cx="174.428" cy="667.897" rx="41.625" ry="47.867"/>
<ellipse fill="#F8F618" stroke="#4A4A4A" stroke-width="5" stroke-miterlimit="10" cx="395.037" cy="526.375" rx="41.624" ry="47.868"/>
<ellipse fill="#F8F618" stroke="#4A4A4A" stroke-width="5" stroke-miterlimit="10" cx="357.576" cy="690.791" rx="41.624" ry="47.868"/>
<ellipse fill="#F8F618" stroke="#4A4A4A" stroke-width="5" stroke-miterlimit="10" cx="328.439" cy="401.501" rx="41.624" ry="47.868"/>
<ellipse fill="#F8F618" stroke="#4A4A4A" stroke-width="5" stroke-miterlimit="10" cx="257.677" cy="586.73" rx="41.624" ry="47.869"/>
<ellipse fill="#F8F618" stroke="#4A4A4A" stroke-width="5" stroke-miterlimit="10" cx="224.344" cy="473.396" rx="41.624" ry="47.869"/>
<ellipse fill="#F5675C" stroke="#4A4A4A" stroke-width="5" stroke-miterlimit="10" cx="170.266" cy="576.324" rx="41.624" ry="47.868"/>
<ellipse fill="#F5675C" stroke="#4A4A4A" stroke-width="5" stroke-miterlimit="10" cx="328.439" cy="674.141" rx="41.624" ry="47.868"/>
<ellipse fill="#F5675C" stroke="#4A4A4A" stroke-width="5" stroke-miterlimit="10" cx="326.357" cy="551.349" rx="41.624" ry="47.868"/>
<ellipse fill="#F5675C" stroke="#4A4A4A" stroke-width="5" stroke-miterlimit="10" cx="241.028" cy="461.857" rx="41.624" ry="47.868"/>
<ellipse fill="#F4B410" stroke="#4A4A4A" stroke-width="5" stroke-miterlimit="10" cx="395.038" cy="397.339" rx="41.625" ry="47.868"/>
<ellipse fill="#F4B410" stroke="#4A4A4A" stroke-width="5" stroke-miterlimit="10" cx="380.469" cy="617.948" rx="41.625" ry="47.868"/>
<ellipse fill="#BF3C9A" stroke="#4A4A4A" stroke-width="5" stroke-miterlimit="10" cx="116.154" cy="393.177" rx="41.624" ry="47.868"/>
<ellipse fill="#BF3C9A" stroke="#4A4A4A" stroke-width="5" stroke-miterlimit="10" cx="297.22" cy="538.862" rx="41.624" ry="47.868"/>
<ellipse fill="#BF3C9A" stroke="#4A4A4A" stroke-width="5" stroke-miterlimit="10" cx="384.632" cy="518.05" rx="41.625" ry="47.868"/>
<ellipse fill="#BF3C9A" stroke="#4A4A4A" stroke-width="5" stroke-miterlimit="10" cx="326.357" cy="665.816" rx="41.624" ry="47.869"/>
<ellipse fill="#BF3C9A" stroke="#4A4A4A" stroke-width="5" stroke-miterlimit="10" cx="99.505" cy="515.968" rx="41.624" ry="47.868"/>
<ellipse fill="#BF3C9A" stroke="#4A4A4A" stroke-width="5" stroke-miterlimit="10" cx="257.677" cy="684.547" rx="41.624" ry="47.868"/>
<ellipse fill="#BF3C9A" stroke="#4A4A4A" stroke-width="5" stroke-miterlimit="10" cx="272.245" cy="389.014" rx="41.624" ry="47.868"/>
<ellipse fill="#F4B410" stroke="#4A4A4A" stroke-width="5" stroke-miterlimit="10" cx="147.372" cy="597.136" rx="41.624" ry="47.868"/>
<ellipse fill="#F4B410" stroke="#4A4A4A" stroke-width="5" stroke-miterlimit="10" cx="205.647" cy="532.618" rx="41.625" ry="47.868"/>
<ellipse fill="#F4B410" stroke="#4A4A4A" stroke-width="5" stroke-miterlimit="10" cx="205.647" cy="386.933" rx="41.625" ry="47.868"/>
<ellipse fill="#F5675C" stroke="#4A4A4A" stroke-width="5" stroke-miterlimit="10" cx="413.769" cy="461.857" rx="41.625" ry="47.868"/>
<ellipse fill="#F5675C" stroke="#4A4A4A" stroke-width="5" stroke-miterlimit="10" cx="411.688" cy="599.217" rx="41.625" ry="47.868"/>
<ellipse fill="#F5675C" stroke="#4A4A4A" stroke-width="5" stroke-miterlimit="10" cx="251.907" cy="774.953" rx="41.624" ry="47.868"/>
<ellipse fill="#F5675C" stroke="#4A4A4A" stroke-width="5" stroke-miterlimit="10" cx="334.682" cy="347.39" rx="41.624" ry="47.868"/>
<ellipse fill="#F5675C" stroke="#4A4A4A" stroke-width="5" stroke-miterlimit="10" cx="319.571" cy="462.238" rx="41.624" ry="47.868"/>
<ellipse fill="#6DC7DE" stroke="#4A4A4A" stroke-width="5" stroke-miterlimit="10" cx="321.652" cy="505.943" rx="41.624" ry="47.868"/>
<ellipse fill="#6DC7DE" stroke="#4A4A4A" stroke-width="5" stroke-miterlimit="10" cx="459.012" cy="670.359" rx="41.625" ry="47.868"/>
<ellipse fill="#6DC7DE" stroke="#4A4A4A" stroke-width="5" stroke-miterlimit="10" cx="625.51" cy="520.511" rx="41.624" ry="47.868"/>
<ellipse fill="#6DC7DE" stroke="#4A4A4A" stroke-width="5" stroke-miterlimit="10" cx="360.942" cy="502.508" rx="41.624" ry="47.869"/>
<ellipse fill="#6DC7DE" stroke="#4A4A4A" stroke-width="5" stroke-miterlimit="10" cx="479.825" cy="501.78" rx="41.625" ry="47.868"/>
<ellipse fill="#6DC7DE" stroke="#4A4A4A" stroke-width="5" stroke-miterlimit="10" cx="490.231" cy="349.851" rx="41.625" ry="47.868"/>
<ellipse fill="#6DC7DE" stroke="#4A4A4A" stroke-width="5" stroke-miterlimit="10" cx="369.52" cy="362.338" rx="41.624" ry="47.868"/>
<ellipse fill="#6DC7DE" stroke="#4A4A4A" stroke-width="5" stroke-miterlimit="10" cx="559.236" cy="668.927" rx="41.624" ry="47.869"/>
<ellipse fill="#6DC7DE" stroke="#4A4A4A" stroke-width="5" stroke-miterlimit="10" cx="340.384" cy="639.141" rx="41.624" ry="47.869"/>
<ellipse fill="#7DC329" stroke="#4A4A4A" stroke-width="5" stroke-miterlimit="10" cx="456.932" cy="455.994" rx="41.624" ry="47.868"/>
<ellipse fill="#7DC329" stroke="#4A4A4A" stroke-width="5" stroke-miterlimit="10" cx="402.82" cy="562.136" rx="41.625" ry="47.868"/>
<ellipse fill="#7DC329" stroke="#4A4A4A" stroke-width="5" stroke-miterlimit="10" cx="392.414" cy="668.278" rx="41.625" ry="47.868"/>
<ellipse transform="matrix(0.9565 -0.2917 0.2917 0.9565 -198.3768 151.537)" fill="#7DC329" stroke="#4A4A4A" stroke-width="5" stroke-miterlimit="10" cx="409.063" cy="741.12" rx="41.624" ry="47.868"/>
<ellipse fill="#7DC329" stroke="#4A4A4A" stroke-width="5" stroke-miterlimit="10" cx="612" cy="544.132" rx="41.625" ry="47.868"/>
<ellipse fill="#7DC329" stroke="#4A4A4A" stroke-width="5" stroke-miterlimit="10" cx="506.88" cy="647.466" rx="41.625" ry="47.867"/>
<ellipse fill="#7DC329" stroke="#4A4A4A" stroke-width="5" stroke-miterlimit="10" cx="548.505" cy="489.293" rx="41.625" ry="47.868"/>
<ellipse fill="#7DC329" stroke="#4A4A4A" stroke-width="5" stroke-miterlimit="10" cx="567.236" cy="362.339" rx="41.625" ry="47.868"/>
<ellipse fill="#F8F618" stroke="#4A4A4A" stroke-width="5" stroke-miterlimit="10" cx="369.52" cy="464.319" rx="41.624" ry="47.868"/>
<ellipse fill="#F8F618" stroke="#4A4A4A" stroke-width="5" stroke-miterlimit="10" cx="321.652" cy="580.867" rx="41.624" ry="47.868"/>
<ellipse fill="#F8F618" stroke="#4A4A4A" stroke-width="5" stroke-miterlimit="10" cx="373.683" cy="682.847" rx="41.625" ry="47.867"/>
<ellipse fill="#F8F618" stroke="#4A4A4A" stroke-width="5" stroke-miterlimit="10" cx="594.291" cy="541.324" rx="41.624" ry="47.868"/>
<ellipse fill="#F8F618" stroke="#4A4A4A" stroke-width="5" stroke-miterlimit="10" cx="504.83" cy="717.74" rx="41.624" ry="47.868"/>
<ellipse fill="#F8F618" stroke="#4A4A4A" stroke-width="5" stroke-miterlimit="10" cx="527.693" cy="416.451" rx="41.624" ry="47.868"/>
<ellipse fill="#F5675C" stroke="#4A4A4A" stroke-width="5" stroke-miterlimit="10" cx="369.52" cy="591.273" rx="41.624" ry="47.868"/>
<ellipse fill="#F5675C" stroke="#4A4A4A" stroke-width="5" stroke-miterlimit="10" cx="527.693" cy="689.09" rx="41.624" ry="47.868"/>
<ellipse fill="#F5675C" stroke="#4A4A4A" stroke-width="5" stroke-miterlimit="10" cx="525.612" cy="566.298" rx="41.625" ry="47.868"/>
<ellipse fill="#F5675C" stroke="#4A4A4A" stroke-width="5" stroke-miterlimit="10" cx="440.282" cy="476.806" rx="41.625" ry="47.868"/>
<ellipse fill="#F4B410" stroke="#4A4A4A" stroke-width="5" stroke-miterlimit="10" cx="594.292" cy="412.289" rx="41.625" ry="47.868"/>
<ellipse fill="#F4B410" stroke="#4A4A4A" stroke-width="5" stroke-miterlimit="10" cx="579.724" cy="632.897" rx="41.625" ry="47.868"/>
<ellipse fill="#BF3C9A" stroke="#4A4A4A" stroke-width="5" stroke-miterlimit="10" cx="315.408" cy="408.126" rx="41.624" ry="47.868"/>
<ellipse fill="#BF3C9A" stroke="#4A4A4A" stroke-width="5" stroke-miterlimit="10" cx="594.73" cy="573.348" rx="41.624" ry="47.868"/>
<ellipse fill="#BF3C9A" stroke="#4A4A4A" stroke-width="5" stroke-miterlimit="10" cx="583.886" cy="532.999" rx="41.625" ry="47.868"/>
<ellipse fill="#BF3C9A" stroke="#4A4A4A" stroke-width="5" stroke-miterlimit="10" cx="298.76" cy="530.917" rx="41.624" ry="47.868"/>
<ellipse fill="#BF3C9A" stroke="#4A4A4A" stroke-width="5" stroke-miterlimit="10" cx="471.5" cy="403.963" rx="41.624" ry="47.868"/>
<ellipse fill="#F4B410" stroke="#4A4A4A" stroke-width="5" stroke-miterlimit="10" cx="465.256" cy="782.744" rx="41.625" ry="47.869"/>
<ellipse fill="#F4B410" stroke="#4A4A4A" stroke-width="5" stroke-miterlimit="10" cx="429.96" cy="688.752" rx="41.624" ry="47.868"/>
<ellipse fill="#F4B410" stroke="#4A4A4A" stroke-width="5" stroke-miterlimit="10" cx="404.901" cy="547.567" rx="41.625" ry="47.868"/>
<ellipse fill="#F4B410" stroke="#4A4A4A" stroke-width="5" stroke-miterlimit="10" cx="404.901" cy="401.882" rx="41.625" ry="47.868"/>
<ellipse fill="#F5675C" stroke="#4A4A4A" stroke-width="5" stroke-miterlimit="10" cx="642.651" cy="410.435" rx="41.624" ry="47.868"/>
<ellipse fill="#F5675C" stroke="#4A4A4A" stroke-width="5" stroke-miterlimit="10" cx="533.937" cy="362.339" rx="41.625" ry="47.868"/>
<ellipse fill="#F5675C" stroke="#4A4A4A" stroke-width="5" stroke-miterlimit="10" cx="170.266" cy="418.152" rx="41.624" ry="47.868"/>
<ellipse fill="#6DC7DE" stroke="#4A4A4A" stroke-width="5" stroke-miterlimit="10" cx="172.347" cy="461.857" rx="41.624" ry="47.868"/>
<ellipse fill="#6DC7DE" stroke="#4A4A4A" stroke-width="5" stroke-miterlimit="10" cx="476.205" cy="476.425" rx="41.624" ry="47.868"/>
<ellipse fill="#6DC7DE" stroke="#4A4A4A" stroke-width="5" stroke-miterlimit="10" cx="330.52" cy="457.694" rx="41.624" ry="47.868"/>
<ellipse fill="#6DC7DE" stroke="#4A4A4A" stroke-width="5" stroke-miterlimit="10" cx="340.927" cy="305.765" rx="41.624" ry="47.868"/>
<ellipse fill="#6DC7DE" stroke="#4A4A4A" stroke-width="5" stroke-miterlimit="10" cx="220.216" cy="318.252" rx="41.624" ry="47.868"/>
<ellipse fill="#7DC329" stroke="#4A4A4A" stroke-width="5" stroke-miterlimit="10" cx="307.627" cy="411.908" rx="41.624" ry="47.868"/>
<ellipse fill="#7DC329" stroke="#4A4A4A" stroke-width="5" stroke-miterlimit="10" cx="253.515" cy="518.05" rx="41.624" ry="47.868"/>
<ellipse fill="#7DC329" stroke="#4A4A4A" stroke-width="5" stroke-miterlimit="10" cx="399.2" cy="445.208" rx="41.625" ry="47.868"/>
<ellipse fill="#7DC329" stroke="#4A4A4A" stroke-width="5" stroke-miterlimit="10" cx="417.931" cy="318.253" rx="41.625" ry="47.868"/>
<ellipse fill="#F8F618" stroke="#4A4A4A" stroke-width="5" stroke-miterlimit="10" cx="220.216" cy="420.233" rx="41.624" ry="47.868"/>
<ellipse fill="#F8F618" stroke="#4A4A4A" stroke-width="5" stroke-miterlimit="10" cx="100.986" cy="221.238" rx="41.624" ry="47.868"/>
<ellipse fill="#F8F618" stroke="#4A4A4A" stroke-width="5" stroke-miterlimit="10" cx="378.389" cy="372.365" rx="41.624" ry="47.868"/>
<ellipse fill="#F5675C" stroke="#4A4A4A" stroke-width="5" stroke-miterlimit="10" cx="290.977" cy="432.72" rx="41.624" ry="47.868"/>
<ellipse fill="#F4B410" stroke="#4A4A4A" stroke-width="5" stroke-miterlimit="10" cx="444.988" cy="368.203" rx="41.625" ry="47.868"/>
<ellipse fill="#BF3C9A" stroke="#4A4A4A" stroke-width="5" stroke-miterlimit="10" cx="166.104" cy="364.04" rx="41.624" ry="47.868"/>
<ellipse fill="#BF3C9A" stroke="#4A4A4A" stroke-width="5" stroke-miterlimit="10" cx="149.455" cy="486.832" rx="41.624" ry="47.868"/>
<ellipse fill="#BF3C9A" stroke="#4A4A4A" stroke-width="5" stroke-miterlimit="10" cx="322.195" cy="359.877" rx="41.624" ry="47.868"/>
<ellipse fill="#F4B410" stroke="#4A4A4A" stroke-width="5" stroke-miterlimit="10" cx="255.597" cy="503.481" rx="41.625" ry="47.868"/>
<ellipse fill="#F4B410" stroke="#4A4A4A" stroke-width="5" stroke-miterlimit="10" cx="255.597" cy="357.796" rx="41.625" ry="47.868"/>
<ellipse fill="#F5675C" stroke="#4A4A4A" stroke-width="5" stroke-miterlimit="10" cx="384.632" cy="318.253" rx="41.625" ry="47.868"/>
<ellipse fill="#F5675C" stroke="#4A4A4A" stroke-width="5" stroke-miterlimit="10" cx="66.748" cy="355.334" rx="41.624" ry="47.868"/>
<ellipse fill="#6DC7DE" stroke="#4A4A4A" stroke-width="5" stroke-miterlimit="10" cx="68.829" cy="399.04" rx="41.624" ry="47.868"/>
<ellipse fill="#6DC7DE" stroke="#4A4A4A" stroke-width="5" stroke-miterlimit="10" cx="372.688" cy="413.608" rx="41.624" ry="47.868"/>
<ellipse fill="#6DC7DE" stroke="#4A4A4A" stroke-width="5" stroke-miterlimit="10" cx="227.002" cy="394.877" rx="41.624" ry="47.868"/>
<ellipse fill="#6DC7DE" stroke="#4A4A4A" stroke-width="5" stroke-miterlimit="10" cx="237.408" cy="242.948" rx="41.624" ry="47.868"/>
<ellipse fill="#6DC7DE" stroke="#4A4A4A" stroke-width="5" stroke-miterlimit="10" cx="116.698" cy="255.435" rx="41.624" ry="47.868"/>
<ellipse fill="#6DC7DE" stroke="#4A4A4A" stroke-width="5" stroke-miterlimit="10" cx="87.561" cy="532.237" rx="41.624" ry="47.869"/>
<ellipse fill="#7DC329" stroke="#4A4A4A" stroke-width="5" stroke-miterlimit="10" cx="204.109" cy="349.09" rx="41.624" ry="47.868"/>
<ellipse fill="#7DC329" stroke="#4A4A4A" stroke-width="5" stroke-miterlimit="10" cx="149.997" cy="455.232" rx="41.624" ry="47.868"/>
<ellipse fill="#7DC329" stroke="#4A4A4A" stroke-width="5" stroke-miterlimit="10" cx="270.015" cy="605.104" rx="41.625" ry="47.868"/>
<ellipse fill="#7DC329" stroke="#4A4A4A" stroke-width="5" stroke-miterlimit="10" cx="295.682" cy="382.39" rx="41.625" ry="47.868"/>
<ellipse fill="#7DC329" stroke="#4A4A4A" stroke-width="5" stroke-miterlimit="10" cx="314.413" cy="255.436" rx="41.625" ry="47.868"/>
<ellipse fill="#F8F618" stroke="#4A4A4A" stroke-width="5" stroke-miterlimit="10" cx="116.698" cy="357.416" rx="41.624" ry="47.868"/>
<ellipse fill="#F8F618" stroke="#4A4A4A" stroke-width="5" stroke-miterlimit="10" cx="68.83" cy="473.964" rx="41.625" ry="47.868"/>
<ellipse fill="#F8F618" stroke="#4A4A4A" stroke-width="5" stroke-miterlimit="10" cx="341.469" cy="434.42" rx="41.624" ry="47.868"/>
<ellipse fill="#F8F618" stroke="#4A4A4A" stroke-width="5" stroke-miterlimit="10" cx="274.871" cy="309.547" rx="41.624" ry="47.868"/>
<ellipse fill="#F8F618" stroke="#4A4A4A" stroke-width="5" stroke-miterlimit="10" cx="170.775" cy="381.442" rx="41.624" ry="47.869"/>
<ellipse fill="#F5675C" stroke="#4A4A4A" stroke-width="5" stroke-miterlimit="10" cx="116.698" cy="484.37" rx="41.624" ry="47.868"/>
<ellipse fill="#F5675C" stroke="#4A4A4A" stroke-width="5" stroke-miterlimit="10" cx="272.789" cy="459.395" rx="41.625" ry="47.868"/>
<ellipse fill="#F5675C" stroke="#4A4A4A" stroke-width="5" stroke-miterlimit="10" cx="187.459" cy="369.903" rx="41.624" ry="47.868"/>
<ellipse fill="#F4B410" stroke="#4A4A4A" stroke-width="5" stroke-miterlimit="10" cx="341.47" cy="305.385" rx="41.625" ry="47.868"/>
<ellipse fill="#BF3C9A" stroke="#4A4A4A" stroke-width="5" stroke-miterlimit="10" cx="62.586" cy="301.223" rx="41.624" ry="47.868"/>
<ellipse fill="#BF3C9A" stroke="#4A4A4A" stroke-width="5" stroke-miterlimit="10" cx="243.652" cy="446.908" rx="41.624" ry="47.868"/>
<ellipse fill="#BF3C9A" stroke="#4A4A4A" stroke-width="5" stroke-miterlimit="10" cx="218.677" cy="297.06" rx="41.624" ry="47.868"/>
<ellipse fill="#F4B410" stroke="#4A4A4A" stroke-width="5" stroke-miterlimit="10" cx="93.804" cy="505.182" rx="41.624" ry="47.868"/>
<ellipse fill="#F4B410" stroke="#4A4A4A" stroke-width="5" stroke-miterlimit="10" cx="152.079" cy="294.979" rx="41.625" ry="47.868"/>
<ellipse fill="#F5675C" stroke="#4A4A4A" stroke-width="5" stroke-miterlimit="10" cx="360.201" cy="369.903" rx="41.624" ry="47.868"/>
<ellipse fill="#F5675C" stroke="#4A4A4A" stroke-width="5" stroke-miterlimit="10" cx="281.114" cy="255.436" rx="41.625" ry="47.868"/>
<ellipse fill="#F5675C" stroke="#4A4A4A" stroke-width="5" stroke-miterlimit="10" cx="266.003" cy="370.284" rx="41.624" ry="47.868"/>
<ellipse fill="#6DC7DE" stroke="#4A4A4A" stroke-width="5" stroke-miterlimit="10" cx="268.084" cy="413.989" rx="41.624" ry="47.868"/>
<ellipse fill="#6DC7DE" stroke="#4A4A4A" stroke-width="5" stroke-miterlimit="10" cx="571.941" cy="428.557" rx="41.624" ry="47.868"/>
<ellipse fill="#6DC7DE" stroke="#4A4A4A" stroke-width="5" stroke-miterlimit="10" cx="426.256" cy="409.826" rx="41.625" ry="47.868"/>
<ellipse fill="#6DC7DE" stroke="#4A4A4A" stroke-width="5" stroke-miterlimit="10" cx="436.663" cy="257.897" rx="41.625" ry="47.868"/>
<ellipse fill="#6DC7DE" stroke="#4A4A4A" stroke-width="5" stroke-miterlimit="10" cx="315.952" cy="270.384" rx="41.624" ry="47.868"/>
<ellipse fill="#7DC329" stroke="#4A4A4A" stroke-width="5" stroke-miterlimit="10" cx="403.363" cy="364.04" rx="41.624" ry="47.868"/>
<ellipse fill="#7DC329" stroke="#4A4A4A" stroke-width="5" stroke-miterlimit="10" cx="494.937" cy="397.339" rx="41.625" ry="47.868"/>
<ellipse fill="#7DC329" stroke="#4A4A4A" stroke-width="5" stroke-miterlimit="10" cx="513.667" cy="270.385" rx="41.625" ry="47.868"/>
<ellipse fill="#F8F618" stroke="#4A4A4A" stroke-width="5" stroke-miterlimit="10" cx="315.952" cy="372.365" rx="41.624" ry="47.868"/>
<ellipse fill="#F8F618" stroke="#4A4A4A" stroke-width="5" stroke-miterlimit="10" cx="339.294" cy="73.65" rx="41.625" ry="47.868"/>
<ellipse fill="#F8F618" stroke="#4A4A4A" stroke-width="5" stroke-miterlimit="10" cx="540.723" cy="449.37" rx="41.624" ry="47.868"/>
<ellipse fill="#F8F618" stroke="#4A4A4A" stroke-width="5" stroke-miterlimit="10" cx="474.125" cy="324.497" rx="41.624" ry="47.868"/>
<ellipse fill="#F5675C" stroke="#4A4A4A" stroke-width="5" stroke-miterlimit="10" cx="298.761" cy="114.988" rx="41.624" ry="47.868"/>
<ellipse fill="#F5675C" stroke="#4A4A4A" stroke-width="5" stroke-miterlimit="10" cx="520.438" cy="393.667" rx="41.625" ry="47.868"/>
<ellipse fill="#F5675C" stroke="#4A4A4A" stroke-width="5" stroke-miterlimit="10" cx="386.713" cy="384.852" rx="41.625" ry="47.868"/>
<ellipse fill="#F4B410" stroke="#4A4A4A" stroke-width="5" stroke-miterlimit="10" cx="540.724" cy="320.334" rx="41.625" ry="47.868"/>
<ellipse fill="#BF3C9A" stroke="#4A4A4A" stroke-width="5" stroke-miterlimit="10" cx="261.84" cy="316.172" rx="41.624" ry="47.868"/>
<ellipse fill="#BF3C9A" stroke="#4A4A4A" stroke-width="5" stroke-miterlimit="10" cx="542.497" cy="427.059" rx="41.624" ry="47.868"/>
<ellipse fill="#BF3C9A" stroke="#4A4A4A" stroke-width="5" stroke-miterlimit="10" cx="162.488" cy="160.013" rx="41.625" ry="47.868"/>
<ellipse fill="#BF3C9A" stroke="#4A4A4A" stroke-width="5" stroke-miterlimit="10" cx="144" cy="160" rx="41.624" ry="47.868"/>
<ellipse fill="#BF3C9A" stroke="#4A4A4A" stroke-width="5" stroke-miterlimit="10" cx="417.932" cy="312.009" rx="41.624" ry="47.868"/>
<ellipse transform="matrix(0.2716 0.9624 -0.9624 0.2716 810.4526 -340.6518)" fill="#F4B410" stroke="#4A4A4A" stroke-width="5" stroke-miterlimit="10" cx="630.284" cy="365.113" rx="41.624" ry="47.868"/>
<ellipse fill="#F4B410" stroke="#4A4A4A" stroke-width="5" stroke-miterlimit="10" cx="351.333" cy="309.928" rx="41.625" ry="47.868"/>
<ellipse fill="#F5675C" stroke="#4A4A4A" stroke-width="5" stroke-miterlimit="10" cx="559.455" cy="384.852" rx="41.624" ry="47.868"/>
<ellipse fill="#F5675C" stroke="#4A4A4A" stroke-width="5" stroke-miterlimit="10" cx="557.374" cy="522.212" rx="41.625" ry="47.868"/>
<ellipse fill="#F5675C" stroke="#4A4A4A" stroke-width="5" stroke-miterlimit="10" cx="480.369" cy="270.385" rx="41.625" ry="47.868"/>
<ellipse fill="#F5675C" stroke="#4A4A4A" stroke-width="5" stroke-miterlimit="10" cx="240.487" cy="283.566" rx="41.624" ry="47.868"/>
<ellipse fill="#6DC7DE" stroke="#4A4A4A" stroke-width="5" stroke-miterlimit="10" cx="242.568" cy="327.272" rx="41.624" ry="47.868"/>
<ellipse fill="#6DC7DE" stroke="#4A4A4A" stroke-width="5" stroke-miterlimit="10" cx="546.426" cy="341.84" rx="41.624" ry="47.868"/>
<ellipse fill="#6DC7DE" stroke="#4A4A4A" stroke-width="5" stroke-miterlimit="10" cx="400.741" cy="323.109" rx="41.625" ry="47.868"/>
<ellipse fill="#6DC7DE" stroke="#4A4A4A" stroke-width="5" stroke-miterlimit="10" cx="411.147" cy="171.18" rx="41.624" ry="47.868"/>
<ellipse fill="#6DC7DE" stroke="#4A4A4A" stroke-width="5" stroke-miterlimit="10" cx="290.436" cy="183.667" rx="41.624" ry="47.868"/>
<ellipse fill="#7DC329" stroke="#4A4A4A" stroke-width="5" stroke-miterlimit="10" cx="377.847" cy="277.322" rx="41.624" ry="47.868"/>
<ellipse fill="#7DC329" stroke="#4A4A4A" stroke-width="5" stroke-miterlimit="10" cx="338.304" cy="327.271" rx="41.624" ry="47.868"/>
<ellipse fill="#7DC329" stroke="#4A4A4A" stroke-width="5" stroke-miterlimit="10" cx="469.421" cy="310.622" rx="41.625" ry="47.868"/>
<ellipse fill="#7DC329" stroke="#4A4A4A" stroke-width="5" stroke-miterlimit="10" cx="488.152" cy="183.668" rx="41.625" ry="47.868"/>
<ellipse fill="#F8F618" stroke="#4A4A4A" stroke-width="5" stroke-miterlimit="10" cx="290.436" cy="285.647" rx="41.624" ry="47.868"/>
<ellipse transform="matrix(-0.9413 0.3376 -0.3376 -0.9413 1373.0339 692.7089)" fill="#F8F618" stroke="#4A4A4A" stroke-width="5" stroke-miterlimit="10" cx="626.291" cy="465.731" rx="41.624" ry="47.868"/>
<ellipse fill="#F8F618" stroke="#4A4A4A" stroke-width="5" stroke-miterlimit="10" cx="515.207" cy="362.652" rx="41.624" ry="47.868"/>
<ellipse fill="#F8F618" stroke="#4A4A4A" stroke-width="5" stroke-miterlimit="10" cx="448.609" cy="237.779" rx="41.624" ry="47.868"/>
<ellipse fill="#F5675C" stroke="#4A4A4A" stroke-width="5" stroke-miterlimit="10" cx="446.528" cy="387.627" rx="41.625" ry="47.868"/>
<ellipse fill="#F5675C" stroke="#4A4A4A" stroke-width="5" stroke-miterlimit="10" cx="361.198" cy="298.135" rx="41.624" ry="47.868"/>
<ellipse fill="#F4B410" stroke="#4A4A4A" stroke-width="5" stroke-miterlimit="10" cx="515.208" cy="233.617" rx="41.625" ry="47.868"/>
<ellipse fill="#BF3C9A" stroke="#4A4A4A" stroke-width="5" stroke-miterlimit="10" cx="236.324" cy="229.455" rx="41.624" ry="47.868"/>
<ellipse fill="#BF3C9A" stroke="#4A4A4A" stroke-width="5" stroke-miterlimit="10" cx="417.391" cy="375.14" rx="41.624" ry="47.868"/>
<ellipse fill="#BF3C9A" stroke="#4A4A4A" stroke-width="5" stroke-miterlimit="10" cx="504.802" cy="354.328" rx="41.625" ry="47.868"/>
<ellipse fill="#BF3C9A" stroke="#4A4A4A" stroke-width="5" stroke-miterlimit="10" cx="219.676" cy="352.246" rx="41.624" ry="47.868"/>
<ellipse fill="#BF3C9A" stroke="#4A4A4A" stroke-width="5" stroke-miterlimit="10" cx="392.416" cy="225.292" rx="41.624" ry="47.868"/>
<ellipse fill="#F4B410" stroke="#4A4A4A" stroke-width="5" stroke-miterlimit="10" cx="325.818" cy="368.896" rx="41.625" ry="47.868"/>
<ellipse fill="#F4B410" stroke="#4A4A4A" stroke-width="5" stroke-miterlimit="10" cx="325.818" cy="223.211" rx="41.625" ry="47.868"/>
<ellipse fill="#F5675C" stroke="#4A4A4A" stroke-width="5" stroke-miterlimit="10" cx="533.939" cy="298.135" rx="41.624" ry="47.868"/>
<ellipse fill="#F5675C" stroke="#4A4A4A" stroke-width="5" stroke-miterlimit="10" cx="454.853" cy="183.667" rx="41.625" ry="47.868"/>
<ellipse fill="#F5675C" stroke="#4A4A4A" stroke-width="5" stroke-miterlimit="10" cx="136.969" cy="220.749" rx="41.624" ry="47.868"/>
<ellipse fill="#6DC7DE" stroke="#4A4A4A" stroke-width="5" stroke-miterlimit="10" cx="139.05" cy="264.455" rx="41.624" ry="47.868"/>
<ellipse fill="#6DC7DE" stroke="#4A4A4A" stroke-width="5" stroke-miterlimit="10" cx="442.908" cy="279.022" rx="41.624" ry="47.868"/>
<ellipse fill="#6DC7DE" stroke="#4A4A4A" stroke-width="5" stroke-miterlimit="10" cx="297.223" cy="260.292" rx="41.624" ry="47.868"/>
<ellipse fill="#6DC7DE" stroke="#4A4A4A" stroke-width="5" stroke-miterlimit="10" cx="307.629" cy="108.362" rx="41.624" ry="47.868"/>
<ellipse fill="#6DC7DE" stroke="#4A4A4A" stroke-width="5" stroke-miterlimit="10" cx="186.918" cy="120.85" rx="41.624" ry="47.868"/>
<ellipse fill="#7DC329" stroke="#4A4A4A" stroke-width="5" stroke-miterlimit="10" cx="274.329" cy="214.505" rx="41.624" ry="47.868"/>
<ellipse fill="#7DC329" stroke="#4A4A4A" stroke-width="5" stroke-miterlimit="10" cx="220.218" cy="320.647" rx="41.624" ry="47.868"/>
<ellipse fill="#7DC329" stroke="#4A4A4A" stroke-width="5" stroke-miterlimit="10" cx="523.348" cy="168.481" rx="41.625" ry="47.868"/>
<ellipse fill="#7DC329" stroke="#4A4A4A" stroke-width="5" stroke-miterlimit="10" cx="365.903" cy="247.805" rx="41.625" ry="47.868"/>
<ellipse fill="#7DC329" stroke="#4A4A4A" stroke-width="5" stroke-miterlimit="10" cx="384.634" cy="120.851" rx="41.625" ry="47.868"/>
<ellipse fill="#F8F618" stroke="#4A4A4A" stroke-width="5" stroke-miterlimit="10" cx="186.918" cy="222.83" rx="41.624" ry="47.868"/>
<ellipse fill="#F8F618" stroke="#4A4A4A" stroke-width="5" stroke-miterlimit="10" cx="139.05" cy="339.378" rx="41.625" ry="47.868"/>
<ellipse fill="#F8F618" stroke="#4A4A4A" stroke-width="5" stroke-miterlimit="10" cx="411.689" cy="299.835" rx="41.625" ry="47.868"/>
<ellipse fill="#F8F618" stroke="#4A4A4A" stroke-width="5" stroke-miterlimit="10" cx="345.092" cy="174.962" rx="41.624" ry="47.868"/>
<ellipse fill="#F8F618" stroke="#4A4A4A" stroke-width="5" stroke-miterlimit="10" cx="274.329" cy="360.19" rx="41.624" ry="47.869"/>
<ellipse fill="#F8F618" stroke="#4A4A4A" stroke-width="5" stroke-miterlimit="10" cx="240.996" cy="246.857" rx="41.624" ry="47.869"/>
<ellipse fill="#F5675C" stroke="#4A4A4A" stroke-width="5" stroke-miterlimit="10" cx="186.918" cy="349.784" rx="41.624" ry="47.868"/>
<ellipse fill="#F5675C" stroke="#4A4A4A" stroke-width="5" stroke-miterlimit="10" cx="343.01" cy="324.81" rx="41.624" ry="47.868"/>
<ellipse fill="#F5675C" stroke="#4A4A4A" stroke-width="5" stroke-miterlimit="10" cx="257.68" cy="235.317" rx="41.624" ry="47.868"/>
<ellipse fill="#F4B410" stroke="#4A4A4A" stroke-width="5" stroke-miterlimit="10" cx="411.691" cy="170.8" rx="41.625" ry="47.868"/>
<ellipse fill="#BF3C9A" stroke="#4A4A4A" stroke-width="5" stroke-miterlimit="10" cx="550.588" cy="183.667" rx="41.625" ry="47.868"/>
<ellipse fill="#BF3C9A" stroke="#4A4A4A" stroke-width="5" stroke-miterlimit="10" cx="401.284" cy="291.51" rx="41.625" ry="47.868"/>
<ellipse fill="#BF3C9A" stroke="#4A4A4A" stroke-width="5" stroke-miterlimit="10" cx="288.898" cy="162.475" rx="41.624" ry="47.868"/>
<ellipse fill="#F4B410" stroke="#4A4A4A" stroke-width="5" stroke-miterlimit="10" cx="127.358" cy="217.263" rx="41.624" ry="47.868"/>
<ellipse transform="matrix(0.4099 0.9121 -0.9121 0.4099 567.8679 -77.7232)" fill="#F4B410" stroke="#4A4A4A" stroke-width="5" stroke-miterlimit="10" cx="344" cy="400" rx="41.625" ry="47.868"/>
<ellipse fill="#F4B410" stroke="#4A4A4A" stroke-width="5" stroke-miterlimit="10" cx="212.299" cy="103.727" rx="41.625" ry="47.868"/>
<ellipse fill="#F5675C" stroke="#4A4A4A" stroke-width="5" stroke-miterlimit="10" cx="430.422" cy="235.317" rx="41.624" ry="47.868"/>
<ellipse fill="#F5675C" stroke="#4A4A4A" stroke-width="5" stroke-miterlimit="10" cx="428.341" cy="372.678" rx="41.625" ry="47.868"/>
<ellipse fill="#F5675C" stroke="#4A4A4A" stroke-width="5" stroke-miterlimit="10" cx="351.335" cy="120.85" rx="41.625" ry="47.868"/>
<ellipse fill="#F5675C" stroke="#4A4A4A" stroke-width="5" stroke-miterlimit="10" cx="336.223" cy="235.698" rx="41.624" ry="47.868"/>
<ellipse fill="#6DC7DE" stroke="#4A4A4A" stroke-width="5" stroke-miterlimit="10" cx="642.162" cy="293.972" rx="41.624" ry="47.868"/>
<ellipse fill="#6DC7DE" stroke="#4A4A4A" stroke-width="5" stroke-miterlimit="10" cx="496.477" cy="275.241" rx="41.625" ry="47.868"/>
<ellipse fill="#6DC7DE" stroke="#4A4A4A" stroke-width="5" stroke-miterlimit="10" cx="506.883" cy="123.312" rx="41.625" ry="47.868"/>
<ellipse fill="#6DC7DE" stroke="#4A4A4A" stroke-width="5" stroke-miterlimit="10" cx="386.172" cy="135.799" rx="41.625" ry="47.868"/>
<ellipse fill="#7DC329" stroke="#4A4A4A" stroke-width="5" stroke-miterlimit="10" cx="473.584" cy="229.454" rx="41.624" ry="47.868"/>
<ellipse fill="#7DC329" stroke="#4A4A4A" stroke-width="5" stroke-miterlimit="10" cx="419.472" cy="335.596" rx="41.625" ry="47.868"/>
<ellipse fill="#7DC329" stroke="#4A4A4A" stroke-width="5" stroke-miterlimit="10" cx="565.157" cy="262.754" rx="41.625" ry="47.868"/>
<ellipse fill="#7DC329" stroke="#4A4A4A" stroke-width="5" stroke-miterlimit="10" cx="583.888" cy="135.8" rx="41.625" ry="47.868"/>
<ellipse fill="#F8F618" stroke="#4A4A4A" stroke-width="5" stroke-miterlimit="10" cx="386.172" cy="237.779" rx="41.625" ry="47.868"/>
<ellipse fill="#F8F618" stroke="#4A4A4A" stroke-width="5" stroke-miterlimit="10" cx="272" cy="76" rx="41.625" ry="47.868"/>
<ellipse fill="#F8F618" stroke="#4A4A4A" stroke-width="5" stroke-miterlimit="10" cx="610.943" cy="314.784" rx="41.624" ry="47.868"/>
<ellipse fill="#F8F618" stroke="#4A4A4A" stroke-width="5" stroke-miterlimit="10" cx="534.346" cy="243.245" rx="41.624" ry="47.868"/>
<ellipse fill="#F8F618" stroke="#4A4A4A" stroke-width="5" stroke-miterlimit="10" cx="473.584" cy="375.14" rx="41.624" ry="47.869"/>
<ellipse fill="#F5675C" stroke="#4A4A4A" stroke-width="5" stroke-miterlimit="10" cx="240.05" cy="179.074" rx="41.624" ry="47.868"/>
<ellipse fill="#F5675C" stroke="#4A4A4A" stroke-width="5" stroke-miterlimit="10" cx="542.264" cy="339.759" rx="41.625" ry="47.868"/>
<ellipse fill="#F5675C" stroke="#4A4A4A" stroke-width="5" stroke-miterlimit="10" cx="456.934" cy="250.267" rx="41.625" ry="47.868"/>
<ellipse fill="#F4B410" stroke="#4A4A4A" stroke-width="5" stroke-miterlimit="10" cx="610.945" cy="185.749" rx="41.625" ry="47.868"/>
<ellipse fill="#BF3C9A" stroke="#4A4A4A" stroke-width="5" stroke-miterlimit="10" cx="332.061" cy="181.586" rx="41.625" ry="47.868"/>
<ellipse fill="#31ADCE" stroke="#4A4A4A" stroke-width="5" stroke-miterlimit="10" cx="409.318" cy="90.434" rx="41.624" ry="47.868"/>
<ellipse fill="#F4B410" stroke="#4A4A4A" stroke-width="5" stroke-miterlimit="10" cx="468.221" cy="108.676" rx="41.625" ry="47.868"/>
<ellipse fill="#F5675C" stroke="#4A4A4A" stroke-width="5" stroke-miterlimit="10" cx="629.676" cy="250.267" rx="41.624" ry="47.868"/>
<ellipse fill="#F5675C" stroke="#4A4A4A" stroke-width="5" stroke-miterlimit="10" cx="550.589" cy="135.799" rx="41.625" ry="47.868"/>
<line fill="none" stroke="#4A4A4A" stroke-width="5" stroke-miterlimit="10" x1="368" y1="882" x2="361" y2="1114"/>
<line fill="none" stroke="#4A4A4A" stroke-width="5" stroke-miterlimit="10" x1="361" y1="1114" x2="470" y2="833"/>
<line fill="none" stroke="#4A4A4A" stroke-width="5" stroke-miterlimit="10" x1="425" y1="851" x2="361" y2="1108"/>
<line fill="none" stroke="#4A4A4A" stroke-width="5" stroke-miterlimit="10" x1="297" y1="832" x2="361" y2="1108"/>
<line fill="none" stroke="#4A4A4A" stroke-width="5" stroke-miterlimit="10" x1="254" y1="823" x2="361" y2="1108"/>
<line fill="none" stroke="#4A4A4A" stroke-width="5" stroke-miterlimit="10" x1="323" y1="840" x2="361" y2="1114"/>
<line fill="none" stroke="#4A4A4A" stroke-width="5" stroke-miterlimit="10" x1="278" y1="819" x2="368" y2="1108"/>
<line fill="none" stroke="#4A4A4A" stroke-width="5" stroke-miterlimit="10" x1="364" y1="1102" x2="397" y2="867"/>
</svg>
